# xmcd
#
# Track frame offsets: 
#        150
#        21733
#        37595
#        59908
#        76410
#        99510
#        126358
#        158500
#        188725
#        215300
#        244935
#        285285
#
# Disc length: 4258 seconds
#
# Revision: 4
# Processed by: cddbd v1.5.2PL0 Copyright (c) Steve Scherf et al.
# Submitted via: ExactAudioCopy v0.99pb5
#
DISCID=a010a00c
DTITLE=Natacha ATLAS - Halim
DYEAR=1997
DGENRE=Folk
TTITLE0=Marifnaash
TTITLE1=Moustahil
TTITLE2=Amulet
TTITLE3=Leyli
TTITLE4=Kidda
TTITLE5=Sweeter Than Any Sweets
TTITLE6=Ya Weledi
TTITLE7=Enogoom Wil Amar
TTITLE8=Andeel
TTITLE9=Gafsa
TTITLE10=Ya Albi Ehda
TTITLE11=Agib
EXTD=
EXTT0=
EXTT1=
EXTT2=
EXTT3=
EXTT4=
EXTT5=
EXTT6=
EXTT7=
EXTT8=
EXTT9=
EXTT10=
EXTT11=
PLAYORDER=
